<svg xmlns="http://www.w3.org/2000/svg" xmlns:xlink="http://www.w3.org/1999/xlink" viewBox="0 0 64 64" id="cooking"><defs>
	<linearGradient id="a" x1="7.684" x2="66.869" y1="69.421" y2="3.895" gradientUnits="userSpaceOnUse">
		<stop offset="0.259336" stop-color="#FFDB6E"></stop>
		<stop offset="1" stop-color="#FFDB6E"></stop>
		</linearGradient><linearGradient id="b" x1="-4.751" x2="54.434" y1="58.189" y2="-7.337" xlink:href="#a">
		</linearGradient><linearGradient id="c" x1="-19.834" x2="39.351" y1="44.566" y2="-20.96" xlink:href="#a">
		</linearGradient><linearGradient id="d" x1="-15.428" x2="43.757" y1="48.545" y2="-16.981" xlink:href="#a">
		</linearGradient><linearGradient id="e" x1="-4.965" x2="54.221" y1="57.996" y2="-7.53" xlink:href="#a">
		</linearGradient><linearGradient id="f" x1="-.559" x2="58.626" y1="61.976" y2="-3.551" xlink:href="#a">
		</linearGradient></defs><path fill="url(#a)" d="M56 55a1 1 0 0 0 1-1V32.48l4.62-3.7A1 1 0 0 0 62 28v-4a1 1 0 0 0-1-1h-4v-1a1 1 0 0 0-1-1H8a1 1 0 0 0-1 1v1H3a1 1 0 0 0-1 1v4a1 1 0 0 0 .38.78L7 32.48V54a1 1 0 0 0 1 1h2.81a5.956 5.956 0 0 0 .73 1H3a1 1 0 0 0-1 1v4a1 1 0 0 0 1 1h58a1 1 0 0 0 1-1v-4a1 1 0 0 0-1-1h-8.54a5.956 5.956 0 0 0 .73-1Zm1-30h3v2.52l-3 2.4ZM7 29.92l-3-2.4V25h3ZM60 58v2H4v-2Zm-43.07-9.38a1.007 1.007 0 0 0-1.86 0 40.668 40.668 0 0 0-2.04 6.04A4.008 4.008 0 0 1 12 52c0-1.54 2.2-5.43 4-8.2 1.8 2.77 4 6.66 4 8.2a4.008 4.008 0 0 1-1.03 2.66 40.668 40.668 0 0 0-2.04-6.04ZM17 55a1 1 0 0 1-2 0 17.83 17.83 0 0 1 1-3.24A17.83 17.83 0 0 1 17 55Zm3.46 1a5.956 5.956 0 0 0 .73-1h5.62a5.956 5.956 0 0 0 .73 1Zm12.47-7.38a1.007 1.007 0 0 0-1.86 0 40.668 40.668 0 0 0-2.04 6.04A4.008 4.008 0 0 1 28 52c0-1.54 2.2-5.43 4-8.2 1.8 2.77 4 6.66 4 8.2a4.008 4.008 0 0 1-1.03 2.66 40.668 40.668 0 0 0-2.04-6.04ZM33 55a1 1 0 0 1-2 0 17.83 17.83 0 0 1 1-3.24A17.83 17.83 0 0 1 33 55Zm3.46 1a5.956 5.956 0 0 0 .73-1h5.62a5.956 5.956 0 0 0 .73 1Zm12.47-7.38a1.007 1.007 0 0 0-1.86 0 40.668 40.668 0 0 0-2.04 6.04A4.008 4.008 0 0 1 44 52c0-1.54 2.2-5.43 4-8.2 1.8 2.77 4 6.66 4 8.2a4.008 4.008 0 0 1-1.03 2.66 40.668 40.668 0 0 0-2.04-6.04ZM49 55a1 1 0 0 1-2 0 17.83 17.83 0 0 1 1-3.24A17.83 17.83 0 0 1 49 55Zm-.18-13.57a1.033 1.033 0 0 0-1.64 0C46.65 42.2 42 49.01 42 52a6.638 6.638 0 0 0 .09 1h-4.18a6.638 6.638 0 0 0 .09-1c0-2.99-4.65-9.8-5.18-10.57a1.033 1.033 0 0 0-1.64 0C30.65 42.2 26 49.01 26 52a6.638 6.638 0 0 0 .09 1h-4.18a6.638 6.638 0 0 0 .09-1c0-2.99-4.65-9.8-5.18-10.57a1.033 1.033 0 0 0-1.64 0C14.65 42.2 10 49.01 10 52a6.638 6.638 0 0 0 .09 1H9V23h46v30h-1.09a6.638 6.638 0 0 0 .09-1c0-2.99-4.65-9.8-5.18-10.57Z"></path><path fill="url(#b)" d="M8 20h48a1 1 0 0 0 1-1v-3a1 1 0 0 0-.917-1L36 13.33V9a1 1 0 0 0-1-1h-6a1 1 0 0 0-1 1v4.33L7.917 15A1 1 0 0 0 7 16v3a1 1 0 0 0 1 1Zm22-10h4v3.163L32.083 13a1.15 1.15 0 0 0-.166 0L30 13.163ZM9 16.92 32 15l23 1.92V18H9Z"></path><path fill="url(#c)" d="M13.52 10h2a1.046 1.046 0 0 1 .292-.75 2.972 2.972 0 0 0 .668-1.918 2.972 2.972 0 0 0-.668-1.918 1.051 1.051 0 0 1-.292-.75 1.043 1.043 0 0 1 .291-.747A2.965 2.965 0 0 0 16.48 2h-2a1.043 1.043 0 0 1-.291.747 2.965 2.965 0 0 0-.669 1.917 2.979 2.979 0 0 0 .668 1.919 1.108 1.108 0 0 1 0 1.5A2.972 2.972 0 0 0 13.52 10Z"></path><path fill="url(#d)" d="M21.52 10h2a1.046 1.046 0 0 1 .292-.75 2.972 2.972 0 0 0 .668-1.918 2.972 2.972 0 0 0-.668-1.918 1.051 1.051 0 0 1-.292-.75 1.043 1.043 0 0 1 .291-.747A2.965 2.965 0 0 0 24.48 2h-2a1.043 1.043 0 0 1-.291.747 2.965 2.965 0 0 0-.669 1.917 2.979 2.979 0 0 0 .668 1.919 1.108 1.108 0 0 1 0 1.5A2.972 2.972 0 0 0 21.52 10Z"></path><path fill="url(#e)" d="M40.52 10h2a1.046 1.046 0 0 1 .292-.75 2.972 2.972 0 0 0 .668-1.918 2.972 2.972 0 0 0-.668-1.918 1.051 1.051 0 0 1-.292-.75 1.043 1.043 0 0 1 .291-.747A2.965 2.965 0 0 0 43.48 2h-2a1.043 1.043 0 0 1-.291.747 2.965 2.965 0 0 0-.669 1.917 2.979 2.979 0 0 0 .668 1.919 1.108 1.108 0 0 1 0 1.5A2.972 2.972 0 0 0 40.52 10Z"></path><path fill="url(#f)" d="M48.52 10h2a1.046 1.046 0 0 1 .292-.75 2.972 2.972 0 0 0 .668-1.918 2.972 2.972 0 0 0-.668-1.918 1.051 1.051 0 0 1-.292-.75 1.043 1.043 0 0 1 .291-.747A2.965 2.965 0 0 0 51.48 2h-2a1.043 1.043 0 0 1-.291.747 2.965 2.965 0 0 0-.669 1.917 2.979 2.979 0 0 0 .668 1.919 1.108 1.108 0 0 1 0 1.5A2.972 2.972 0 0 0 48.52 10Z"></path></svg>